<?xml version="1.0" standalone="no"?>
<!DOCTYPE svg PUBLIC "-//W3C//DTD SVG 20010904//EN"
 "http://www.w3.org/TR/2001/REC-SVG-20010904/DTD/svg10.dtd">
<svg version="1.0" xmlns="http://www.w3.org/2000/svg"
 width="512.000000pt" height="512.000000pt" viewBox="0 0 512.000000 512.000000"
 preserveAspectRatio="xMidYMid meet">

<g transform="translate(0.000000,512.000000) scale(0.100000,-0.100000)"
fill="#000000" stroke="none">
<path d="M3319 4656 c-47 -32 -73 -94 -64 -150 6 -37 30 -64 241 -276 129
-130 234 -239 234 -243 0 -3 -530 -8 -1177 -9 l-1178 -3 -58 -22 c-162 -62
-309 -183 -375 -310 -80 -153 -76 -118 -80 -697 -2 -368 0 -527 8 -547 48
-115 210 -123 273 -14 9 14 13 168 17 520 l5 500 28 61 c36 77 104 145 182
181 l60 28 1153 3 c633 1 1152 -1 1152 -5 0 -5 -106 -114 -235 -243 -186 -186
-238 -243 -245 -272 -33 -120 87 -223 207 -177 41 15 749 725 773 775 25 50
25 88 1 139 -23 49 -732 759 -774 774 -49 19 -109 13 -148 -13z"/>
<path d="M4060 2778 c-26 -14 -53 -37 -65 -58 -19 -34 -20 -56 -25 -540 l-5
-505 -27 -51 c-36 -69 -69 -106 -126 -142 -99 -64 -50 -62 -1311 -62 l-1145 0
231 233 c232 232 263 272 263 334 0 40 -32 94 -70 120 -39 27 -107 31 -148 9
-15 -8 -196 -185 -403 -393 -329 -330 -378 -383 -383 -415 -15 -84 -13 -86
391 -489 208 -208 388 -382 400 -388 32 -16 90 -13 130 6 39 18 70 61 79 110
13 69 -6 96 -249 340 l-231 233 1195 2 1194 3 73 27 c106 38 175 83 258 165
57 56 83 92 119 165 73 147 76 182 73 740 l-3 473 -24 34 c-24 34 -89 70 -126
71 -12 0 -41 -10 -65 -22z"/>
</g>
</svg>
